<?xml version="1.0" encoding="UTF-8" standalone="no"?>
<!-- Created with Inkscape (http://www.inkscape.org/) -->

<svg
   xmlns:dc="http://purl.org/dc/elements/1.1/"
   xmlns:cc="http://creativecommons.org/ns#"
   xmlns:rdf="http://www.w3.org/1999/02/22-rdf-syntax-ns#"
   xmlns:svg="http://www.w3.org/2000/svg"
   xmlns="http://www.w3.org/2000/svg"
   xmlns:sodipodi="http://sodipodi.sourceforge.net/DTD/sodipodi-0.dtd"
   xmlns:inkscape="http://www.inkscape.org/namespaces/inkscape"
   width="113.85757mm"
   height="114.72176mm"
   viewBox="0 0 403.43235 406.49441"
   id="svg8945"
   version="1.1"
   inkscape:version="0.91 r13725"
   sodipodi:docname="Logo - Square.svg">
  <defs
     id="defs8947" />
  <sodipodi:namedview
     id="base"
     pagecolor="#ffffff"
     bordercolor="#666666"
     borderopacity="1.0"
     inkscape:pageopacity="0.0"
     inkscape:pageshadow="2"
     inkscape:zoom="0.35"
     inkscape:cx="563.85903"
     inkscape:cy="428.96149"
     inkscape:document-units="px"
     inkscape:current-layer="layer1"
     showgrid="false"
     fit-margin-top="0"
     fit-margin-left="0"
     fit-margin-right="0"
     fit-margin-bottom="0"
     inkscape:window-width="1366"
     inkscape:window-height="705"
     inkscape:window-x="-8"
     inkscape:window-y="-8"
     inkscape:window-maximized="1" />
  <metadata
     id="metadata8950">
    <rdf:RDF>
      <cc:Work
         rdf:about="">
        <dc:format>image/svg+xml</dc:format>
        <dc:type
           rdf:resource="http://purl.org/dc/dcmitype/StillImage" />
        <dc:title></dc:title>
      </cc:Work>
    </rdf:RDF>
  </metadata>
  <g
     inkscape:label="Layer 1"
     inkscape:groupmode="layer"
     id="layer1"
     transform="translate(616.00188,-554.82928)">
    <g
       transform="translate(-191.28571,-54.285673)"
       id="g8800">
      <g
         style="fill:#343434;fill-opacity:1"
         transform="matrix(0.68641017,0,0,0.68641017,-510.45558,540.43962)"
         id="g11777">
        <g
           style="fill:#343434;fill-opacity:1"
           id="g11779">
          <path
             style="fill:#343434;fill-opacity:1;stroke:#343434;stroke-miterlimit:10"
             inkscape:connector-curvature="0"
             id="path11781"
             d="M 225.1,443.9 C 265.3,517.8 343.3,550 414.7,536.7 490.9,522.5 547.2,465.2 559.9,390.4 572.8,314.3 535,233.7 457.7,197.7 c 11.9,-12.6 24.1,-24.9 35.5,-37.9 6.1,-7 13.9,-11.3 21.3,-16.4 19.8,-13.7 39.6,-27.2 59.3,-40.9 3.6,-2.5 5.9,-2.8 9.7,0.3 20.3,16.2 38.7,34.3 55.3,54.2 2.3,2.7 2.5,4.3 0.3,7.2 -15.5,20.9 -30.7,42.1 -46.1,63 -2.4,3.3 -2.5,5.5 -0.3,9 10.6,16.8 19,34.7 24.7,53.8 1.1,3.5 2.5,5.2 6.5,5.9 26.3,4.5 52.6,9.4 78.8,14.2 3.2,0.6 4.7,1.7 5.2,5.4 2.4,19.7 4.9,39.4 4.1,59.3 -0.3,6.4 -0.8,12.7 -0.9,19.1 -0.1,2.5 -0.9,3.3 -3.4,3.7 -25.5,3.9 -51,8 -76.5,12 -4.6,0.7 -7.6,1.6 -8.7,7.3 -3.9,21.4 -11.6,41.6 -21.9,60.7 -1.7,3.2 -1.7,5.5 0.5,8.7 15.5,22 30.7,44.3 46.1,66.4 1.9,2.7 2.3,4.4 0.1,7.4 -15.4,20 -32.5,38.3 -51.6,54.9 -2.8,2.4 -4.4,2.4 -7.3,0.3 -21,-15.4 -42.1,-30.6 -63.1,-46.1 -2.7,-2 -4.6,-2.4 -7.6,-0.4 -20.4,13.6 -42.5,23.7 -66.2,30.1 -3.1,0.8 -4.3,2.6 -4.8,5.5 -4.8,26.3 -9.8,52.5 -14.4,78.8 -0.8,4.6 -2.5,6.1 -7.2,6.5 -24,2.1 -48,2.8 -72,1.1 -3.4,-0.2 -4.9,-0.7 -5.5,-4.6 -4,-26.2 -8.4,-52.4 -12.5,-78.6 -0.4,-2.7 -1,-3.9 -4,-4.6 -24.6,-5.4 -48.1,-14.1 -69.6,-27.3 -3.5,-2.1 -5.9,-1.9 -9.2,0.3 -21.6,15.1 -43.5,29.9 -65.1,45 -2.8,2 -4.6,2.1 -7.4,-0.2 -19.3,-15.7 -36.8,-33.1 -52.7,-52.3 -1.6,-2 -2.5,-3.3 -0.7,-6 28.9,-41.9 60.5,-81.6 97,-117.2 0.5,-0.6 1,-0.8 1.7,-1.4 z"
             stroke-miterlimit="10" />
        </g>
      </g>
      <g
         style="fill:#343434;fill-opacity:1"
         transform="matrix(0.68641017,0,0,0.68641017,-510.45558,540.43962)"
         id="g11881">
        <path
           style="fill:#343434;fill-opacity:1;stroke:#343434;stroke-miterlimit:10"
           inkscape:connector-curvature="0"
           id="path11883"
           d="m 207.5,422.3 2.8,7.1 -47.2,18.5 -2.8,-7.1 47.2,-18.5 z"
           stroke-miterlimit="10" />
        <path
           style="fill:#343434;fill-opacity:1;stroke:#343434;stroke-miterlimit:10"
           inkscape:connector-curvature="0"
           id="path11885"
           d="m 153.5,419.7 30.7,-18 -33.1,8.2 -1.8,-7.4 49.3,-12.2 2,8 -29,18 31.6,-7.8 1.8,7.4 -49.4,12.1 -2.1,-8.3 z"
           stroke-miterlimit="10" />
        <path
           style="fill:#343434;fill-opacity:1;stroke:#343434;stroke-miterlimit:10"
           inkscape:connector-curvature="0"
           id="path11887"
           d="m 197,375.3 -50.1,12 -0.5,-8 39.1,-8.7 -39.8,-4.1 -0.5,-8 51.2,6.2 0.6,10.6 z"
           stroke-miterlimit="10" />
        <path
           style="fill:#343434;fill-opacity:1;stroke:#343434;stroke-miterlimit:10"
           inkscape:connector-curvature="0"
           id="path11889"
           d="m 196.3,349.5 -50.5,-5.6 2.4,-21.6 7.6,0.8 -1.5,14 13.8,1.5 1.1,-10.3 7.6,0.8 -1.1,10.3 13.8,1.5 1.5,-14 7.6,0.8 -2.3,21.8 z"
           stroke-miterlimit="10" />
        <path
           style="fill:#343434;fill-opacity:1;stroke:#343434;stroke-miterlimit:10"
           inkscape:connector-curvature="0"
           id="path11891"
           d="m 152.8,301 35.6,-0.7 -32.9,-9.1 2,-7.4 48.9,13.5 -2.2,7.9 -34.1,1.5 31.3,8.6 -2,7.4 -48.9,-13.5 2.3,-8.2 z"
           stroke-miterlimit="10" />
        <path
           style="fill:#343434;fill-opacity:1;stroke:#343434;stroke-miterlimit:10"
           inkscape:connector-curvature="0"
           id="path11893"
           d="m 173.1,266.3 -3.5,7.4 -7,-3.3 10.2,-21.6 7,3.3 -3.4,7.3 39,18.3 -3.3,6.9 -39,-18.3 z"
           stroke-miterlimit="10" />
        <path
           style="fill:#343434;fill-opacity:1;stroke:#343434;stroke-miterlimit:10"
           inkscape:connector-curvature="0"
           id="path11895"
           d="m 226.3,258.5 -4.1,6.5 -43,-26.9 4.1,-6.5 43,26.9 z"
           stroke-miterlimit="10" />
        <path
           style="fill:#343434;fill-opacity:1;stroke:#343434;stroke-miterlimit:10"
           inkscape:connector-curvature="0"
           id="path11897"
           d="m 197.7,210.7 c 2.1,-2.6 4.9,-4.1 8.2,-4.4 3.3,-0.3 6.3,0.6 8.9,2.7 l 21.5,17.5 c 2.6,2.1 4.1,4.9 4.4,8.2 0.3,3.3 -0.6,6.3 -2.7,8.9 -2.1,2.6 -4.9,4.1 -8.2,4.4 -3.3,0.3 -6.3,-0.6 -8.9,-2.7 l -21.5,-17.5 c -2.6,-2.1 -4.1,-4.9 -4.4,-8.2 -0.3,-3.3 0.6,-6.3 2.7,-8.9 z m 11.9,4.4 c -0.9,-0.8 -2,-1.1 -3.2,-1 -1.2,0.1 -2.2,0.7 -2.9,1.6 -0.8,0.9 -1.1,2 -1,3.2 0.1,1.2 0.6,2.2 1.6,3 l 21.5,17.5 c 0.9,0.8 2,1.1 3.2,1 1.2,-0.1 2.2,-0.7 3,-1.6 0.8,-0.9 1.1,-2 1,-3.2 -0.1,-1.2 -0.7,-2.2 -1.6,-2.9 l -21.6,-17.6 z"
           stroke-miterlimit="10" />
        <path
           style="fill:#343434;fill-opacity:1;stroke:#343434;stroke-miterlimit:10"
           inkscape:connector-curvature="0"
           id="path11899"
           d="m 222.8,185.1 30,19.1 -22.4,-25.8 5.8,-5 33.3,38.3 -6.2,5.4 -29.3,-17.6 21.3,24.5 -5.8,5 -33.3,-38.3 6.6,-5.6 z"
           stroke-miterlimit="10" />
        <path
           style="fill:#343434;fill-opacity:1;stroke:#343434;stroke-miterlimit:10"
           inkscape:connector-curvature="0"
           id="path11901"
           d="m 307.2,176.3 c 1.6,3.2 2,6.3 1.4,9.4 -0.4,2.1 -1.5,3.9 -3.2,5.5 -0.9,0.9 -2.1,1.6 -3.6,2.3 -2.7,1.3 -5.3,1.7 -7.7,1.2 -2,-0.4 -3.9,-1.3 -5.7,-2.8 -1.8,-1.5 -3.3,-3.4 -4.6,-5.8 l 6.4,-3.6 c 1.6,2.5 3.2,4.1 4.9,4.8 1.3,0.5 2.4,0.5 3.5,-0.1 1.5,-0.8 2.3,-2.1 2.6,-4 0.1,-0.9 -0.1,-2 -0.7,-3.4 -0.9,-1.9 -2.7,-3.4 -5.3,-4.4 -2,-0.6 -5,-1.6 -8.9,-2.9 -3.3,-1.1 -5.9,-2.3 -7.7,-3.7 -2,-1.5 -3.5,-3.4 -4.6,-5.7 -2,-4.2 -2.1,-8 -0.3,-11.5 1.1,-2.1 3,-3.8 5.5,-5 2.5,-1.2 4.8,-1.6 7.1,-1.4 1.8,0.2 3.4,0.9 5,2 1.6,1.1 2.9,2.7 4,4.6 l -6,4.4 c -1.1,-1.8 -2.3,-3 -3.7,-3.6 -1,-0.5 -2.1,-0.4 -3.3,0.2 -1.3,0.6 -2,1.6 -2.1,3.1 -0.1,1.2 0.2,2.4 0.8,3.7 1,2.1 2.9,3.8 5.7,5.1 1.1,0.5 2.6,1 4.5,1.5 2.2,0.6 3.8,1 4.5,1.3 2.5,0.9 4.6,2 6.3,3.2 0.8,0.6 1.5,1.1 2.1,1.7 1.4,1.4 2.5,2.7 3.1,3.9 z"
           stroke-miterlimit="10" />
        <path
           style="fill:#343434;fill-opacity:1;stroke:#343434;stroke-miterlimit:10"
           inkscape:connector-curvature="0"
           id="path11903"
           d="m 313.2,142.4 -7.8,2.3 -2.1,-7.4 22.9,-6.6 2.1,7.4 -7.8,2.3 12,41.3 -7.3,2.1 -12,-41.4 z"
           stroke-miterlimit="10" />
        <path
           style="fill:#343434;fill-opacity:1;stroke:#343434;stroke-miterlimit:10"
           inkscape:connector-curvature="0"
           id="path11905"
           d="m 358.1,177.3 c -3.4,0.4 -6.3,-0.4 -8.9,-2.5 -2.6,-2.1 -4.1,-4.7 -4.5,-8.1 l -4.6,-39 7.4,-0.9 4.6,38.9 c 0.1,1.2 0.7,2.2 1.7,2.9 1,0.7 2,1 3.2,0.9 1.2,-0.1 2.2,-0.7 2.9,-1.6 0.7,-0.9 1,-2 0.9,-3.2 l -4.6,-38.9 7.9,-0.9 4.6,39 c 0.4,3.4 -0.4,6.4 -2.5,8.9 -2,2.7 -4.8,4.1 -8.1,4.5 z"
           stroke-miterlimit="10" />
        <path
           style="fill:#343434;fill-opacity:1;stroke:#343434;stroke-miterlimit:10"
           inkscape:connector-curvature="0"
           id="path11907"
           d="m 401.3,164.1 c -0.2,3.3 -1.5,6.1 -3.9,8.4 -2.5,2.3 -5.3,3.3 -8.7,3.2 l -12,-0.6 2.4,-50.7 12,0.6 c 3.3,0.2 6.1,1.5 8.3,4 2.2,2.5 3.3,5.4 3.1,8.7 l -1.2,26.4 z m -16.6,3.8 4.6,0.2 c 1.2,0.1 2.3,-0.3 3.1,-1.2 0.9,-0.8 1.3,-1.8 1.4,-3 l 1.3,-26.5 c 0.1,-1.2 -0.3,-2.3 -1.1,-3.2 -0.8,-0.9 -1.8,-1.4 -3,-1.4 l -4.6,-0.2 -1.7,35.3 z"
           stroke-miterlimit="10" />
        <path
           style="fill:#343434;fill-opacity:1;stroke:#343434;stroke-miterlimit:10"
           inkscape:connector-curvature="0"
           id="path11909"
           d="m 415,178.8 -7.5,-1.3 8.6,-50 7.5,1.3 -8.6,50 z"
           stroke-miterlimit="10" />
        <path
           style="fill:#343434;fill-opacity:1;stroke:#343434;stroke-miterlimit:10"
           inkscape:connector-curvature="0"
           id="path11911"
           d="m 448.4,134.3 c 3.2,1 5.6,3 7.2,5.9 1.6,3 1.9,6 0.9,9.2 l -8.1,26.5 c -1,3.2 -3,5.6 -5.9,7.2 -3,1.6 -6,1.9 -9.2,0.9 -3.2,-1 -5.6,-3 -7.2,-5.9 -1.6,-3 -1.8,-6 -0.9,-9.2 l 8.1,-26.5 c 1,-3.2 3,-5.6 5.9,-7.2 3,-1.6 6,-1.9 9.2,-0.9 z m 0.5,12.6 c 0.4,-1.2 0.2,-2.3 -0.3,-3.3 -0.6,-1.1 -1.4,-1.8 -2.6,-2.1 -1.2,-0.4 -2.3,-0.3 -3.4,0.3 -1.1,0.6 -1.8,1.4 -2.1,2.6 l -8.1,26.6 c -0.4,1.2 -0.2,2.3 0.3,3.3 0.6,1.1 1.4,1.8 2.6,2.1 1.2,0.4 2.3,0.2 3.3,-0.3 1.1,-0.6 1.8,-1.4 2.1,-2.6 l 8.2,-26.6 z"
           stroke-miterlimit="10" />
      </g>
      <path
         stroke-miterlimit="10"
         d="m -187.84278,827.9768 c -12.4927,17.91531 -32.6731,30.06477 -55.8052,31.64351"
         id="path11785"
         inkscape:connector-curvature="0"
         style="fill:none;stroke:#343434;stroke-width:4.80487108;stroke-miterlimit:10;stroke-opacity:1" />
      <path
         stroke-miterlimit="10"
         d="m -244.40298,711.28707 c 24.0243,1.37282 44.9598,14.20869 57.5212,33.08497"
         id="path11787"
         inkscape:connector-curvature="0"
         style="fill:none;stroke:#343434;stroke-width:4.80487108;stroke-miterlimit:10;stroke-opacity:1" />
      <path
         stroke-miterlimit="10"
         d="m -315.78968,817.68065 c -4.6676,-9.74703 -7.2759,-20.66095 -7.2759,-32.19264 0,-11.25713 2.4711,-21.89648 6.9327,-31.43759"
         id="path11789"
         inkscape:connector-curvature="0"
         style="fill:none;stroke:#343434;stroke-width:4.80487108;stroke-miterlimit:10;stroke-opacity:1" />
      <polygon
         transform="matrix(0.68641017,0,0,0.68641017,-510.45558,540.43962)"
         stroke-miterlimit="10"
         points="310,236.2 380.4,236.2 415.5,297.1 380.4,358 310,358 274.9,297.1 "
         id="polygon11791"
         style="fill:none;stroke:#343434;stroke-width:7;stroke-miterlimit:10;stroke-opacity:1" />
      <polygon
         transform="matrix(0.68641017,0,0,0.68641017,-510.45558,540.43962)"
         stroke-miterlimit="10"
         points="417.3,297.1 487.7,297.1 522.8,358 487.7,418.9 417.3,418.9 382.2,358 "
         id="polygon11793"
         style="fill:none;stroke:#343434;stroke-width:7;stroke-miterlimit:10;stroke-opacity:1" />
      <polygon
         transform="matrix(0.68641017,0,0,0.68641017,-510.45558,540.43962)"
         stroke-miterlimit="10"
         points="310,358 380.4,358 415.5,418.9 380.4,479.8 310,479.8 274.9,418.9 "
         id="polygon11795"
         style="fill:none;stroke:#343434;stroke-width:7;stroke-miterlimit:10;stroke-opacity:1" />
      <polygon
         transform="matrix(0.68641017,0,0,0.68641017,-510.45558,540.43962)"
         points="316.6,368 375.4,368 404.8,418.9 375.4,469.8 316.6,469.8 287.2,418.9 "
         id="polygon11797"
         style="fill:#f0bd1b" />
      <g
         style="fill:#343434;fill-opacity:1;stroke:none;stroke-opacity:1"
         transform="matrix(0.68641017,0,0,0.68641017,-510.45558,540.43962)"
         id="g11799">
        <g
           style="fill:#343434;fill-opacity:1;stroke:none;stroke-opacity:1"
           id="g11801">
          <path
             d="m 366.9,398.3 c 0.5,0.8 1.1,1.6 1.6,2.4 3.9,6.6 3.5,14.7 -1.2,20.7 -4.9,6.3 -11.4,8.5 -19.2,6.9 -0.4,-0.1 -0.6,0 -0.9,0.3 -1.4,1.4 -2.8,2.8 -4.2,4.2 -1.4,1.4 -3.7,1.4 -5.1,0 -2.7,-2.7 -5.5,-5.4 -8.2,-8.2 -1.4,-1.4 -1.3,-3.7 0,-5.1 1.4,-1.4 2.8,-2.8 4.2,-4.2 0.3,-0.2 0.3,-0.5 0.2,-0.8 -1.2,-5.3 -0.4,-10.4 2.7,-14.9 3.5,-5.1 8.5,-7.9 14.7,-8.2 4.4,-0.2 8.4,1.1 12,3.7 0.2,0.2 0.4,0.3 0.7,0.5 1,0.9 1.8,1.8 2.7,2.7 z m -34.3,23.8 c 2.7,2.7 5.3,5.3 7.9,7.9 1.5,-1.5 3,-3 4.5,-4.5 0.5,-0.5 0.9,-1.2 1.5,-1.4 0.6,-0.2 1.3,0.2 2,0.4 6.4,1.7 12.8,-0.7 16.4,-6.2 4.4,-6.7 2.8,-15.8 -4,-20.4 -6.5,-4.4 -14.8,-3.3 -19.9,2.7 -2.5,2.9 -3.6,6.2 -3.4,10 0.1,1.7 0.6,3.3 0.9,5 0.1,0.4 0,0.6 -0.2,0.9 -0.6,0.5 -1.1,1.1 -1.6,1.6 -1.5,1.3 -2.8,2.6 -4.1,4 z"
             id="path11803"
             inkscape:connector-curvature="0"
             style="fill:#343434;fill-opacity:1;stroke:none;stroke-opacity:1" />
          <path
             d="m 321.9,432.7 c -0.6,-0.8 -0.7,-1.6 -0.3,-2.3 0.4,-0.7 1.2,-1.1 2,-0.9 0.4,0.1 0.7,0.3 1,0.6 2.6,2.6 5.2,5.2 7.9,7.8 0.8,0.8 0.8,1.8 0.2,2.5 -0.8,0.9 -1.8,1 -2.7,0.3 0,0 -0.1,0 -0.1,0 -1.6,1.2 -3.1,1.4 -4.6,0.5 -0.4,-0.2 -0.7,-0.5 -1,-0.8 -0.7,-0.7 -1.4,-1.5 -2.2,-2.2 -1.5,-1.3 -1.8,-3.8 -0.2,-5.5 z"
             id="path11805"
             inkscape:connector-curvature="0"
             style="fill:#343434;fill-opacity:1;stroke:none;stroke-opacity:1" />
          <path
             d="m 332.5,430.1 c 1.3,1.3 2.6,2.6 4,4 0.8,0.8 0.8,1.9 0,2.6 -0.8,0.8 -1.9,0.8 -2.7,0 -2.6,-2.6 -5.3,-5.3 -7.9,-7.9 -0.8,-0.8 -0.8,-1.9 0,-2.7 0.8,-0.8 1.9,-0.8 2.7,0 1.3,1.3 2.6,2.6 3.9,4 z"
             id="path11807"
             inkscape:connector-curvature="0"
             style="fill:#343434;fill-opacity:1;stroke:none;stroke-opacity:1" />
        </g>
      </g>
      <polygon
         transform="matrix(0.68641017,0,0,0.68641017,-510.45558,540.43962)"
         points="316.6,246.2 375.4,246.2 404.8,297.1 375.4,348 316.6,348 287.2,297.1 "
         id="polygon11809"
         style="fill:#f0bd1b" />
      <g
         style="fill:#343434;fill-opacity:1;stroke:none;stroke-opacity:1"
         transform="matrix(0.68641017,0,0,0.68641017,-510.45558,540.43962)"
         id="g11811">
        <path
           d="m 378.6,288.7 -4.6,-4.6 c -0.3,-0.3 -0.8,-0.3 -1.1,0 l -0.5,0.5 c -0.7,0 -1.8,-0.1 -2.4,-0.7 -0.9,-0.9 0.1,-2.7 -0.7,-3.9 -0.8,-1.2 -2.1,-2.7 -3.1,-3.6 -1,-0.9 -4.6,-4.5 -10.9,-7.1 -6.3,-2.6 -12,-0.6 -13.5,0.8 -0.8,0.7 -1.6,2.1 -0.1,1.9 1.5,-0.2 6.8,-0.6 9,1.1 2.2,1.8 3.9,4.1 4.1,7.1 0.1,2.9 -0.8,4.6 -4.6,8.3 l -0.8,-0.4 c -0.5,-0.3 -1.1,-0.1 -1.4,0.2 0,0 -0.6,0.6 -6.2,6.2 -8.3,8.3 -18.6,16.7 -18.6,16.7 -0.3,0.3 -0.3,0.8 0,1.1 l 7.4,7.4 c 0.3,0.3 0.8,0.3 1.1,0 0,0 8.4,-10.3 16.7,-18.6 5.6,-5.6 6.2,-6.2 6.2,-6.2 0.3,-0.3 0.5,-0.9 0.2,-1.4 l -0.5,-0.9 c 3.4,-3.4 4.7,-4.8 6.3,-5.2 1.7,-0.5 4,-0.1 4.8,0.4 0.7,0.4 1.3,1.5 1.4,2.5 l -1.3,1.3 c -0.3,0.3 -0.3,0.8 0,1.1 l 4.6,4.6 c 0.3,0.3 0.8,0.3 1.1,0 l 7.4,-7.4 c 0.3,-0.5 0.3,-0.9 0,-1.2 z"
           id="path11813"
           inkscape:connector-curvature="0"
           style="fill:#343434;fill-opacity:1;stroke:none;stroke-opacity:1" />
      </g>
      <polygon
         transform="matrix(0.68641017,0,0,0.68641017,-510.45558,540.43962)"
         points="423.9,307.1 482.7,307.1 512.1,358 482.7,408.9 423.9,408.9 394.5,358 "
         id="polygon11815"
         style="fill:#f0bd1b" />
      <g
         style="fill:#343434;fill-opacity:1;stroke:none;stroke-opacity:1"
         transform="matrix(0.68641017,0,0,0.68641017,-510.45558,540.43962)"
         id="g11817">
        <g
           style="fill:#343434;fill-opacity:1;stroke:none;stroke-opacity:1"
           id="g11819">
          <path
             d="m 509.6,302.9 c -0.6,1 -28.4,29.2 -29.2,30 -7.1,7.2 -14.3,14.3 -21.4,21.4 -1,1 -1.8,1.9 -1.7,3.6 0.1,2.2 -1.8,3.7 -3.9,3.7 -2,-0.1 -3.6,-1.7 -3.7,-3.7 -0.1,-2.1 1.5,-4 3.7,-3.9 1.7,0.1 2.6,-0.6 3.6,-1.7 7.1,-7.2 14.3,-14.3 21.4,-21.4 0.8,-0.8 30.3,-28.3 31.3,-28.9 0.3,0.3 -0.3,0.6 -0.1,0.9 z"
             id="path11821"
             inkscape:connector-curvature="0"
             style="fill:#343434;fill-opacity:1;stroke:none;stroke-opacity:1" />
          <path
             d="m 431.4,334.5 c 0.8,0.5 1.7,1 2.4,1.6 4.8,4.7 9.5,9.4 14.2,14.1 0.2,0.2 0.4,0.3 0.5,0.5 0.2,0.7 0.4,1.4 0.6,2.2 -0.8,-0.1 -1.8,0.1 -2.3,-0.4 -2.6,-2.4 -5.1,-5 -7.7,-7.6 -2.4,-2.4 -4.9,-4.8 -7.2,-7.3 -0.6,-0.6 -1,-1.5 -1.6,-2.2 0.4,-0.2 0.7,-0.5 1.1,-0.9 z"
             id="path11823"
             inkscape:connector-curvature="0"
             style="fill:#343434;fill-opacity:1;stroke:none;stroke-opacity:1" />
          <path
             d="m 475.7,381 c -0.4,-0.2 -1,-0.4 -1.3,-0.7 -5.3,-5.3 -10.7,-10.6 -15.9,-15.9 -0.4,-0.4 -0.3,-1.3 -0.4,-2 0.7,0 1.6,-0.3 1.9,0.1 5.5,5.4 10.9,10.8 16.3,16.3 0.3,0.3 0.3,0.8 0.5,1.1 -0.4,0.4 -0.7,0.8 -1.1,1.1 z"
             id="path11825"
             inkscape:connector-curvature="0"
             style="fill:#343434;fill-opacity:1;stroke:none;stroke-opacity:1" />
          <path
             d="m 480.1,351.9 c -0.7,0.2 -1.3,0.5 -1.8,0.6 -5.2,1.4 -10.4,2.9 -15.7,4.1 -0.8,0.2 -1.8,-0.4 -2.7,-0.6 0.6,-0.6 1.2,-1.6 1.9,-1.8 5.4,-1.5 10.8,-3 16.2,-4.3 0.7,-0.2 1.5,0.1 2.2,0.5 0.2,0 0,0.9 -0.1,1.5 z"
             id="path11827"
             inkscape:connector-curvature="0"
             style="fill:#343434;fill-opacity:1;stroke:none;stroke-opacity:1" />
          <path
             d="m 427.3,365.6 c -1,-1.7 0,-2.2 1.3,-2.5 4.5,-1.2 9,-2.4 13.5,-3.6 1.1,-0.3 2.2,-0.7 3.4,-0.8 0.6,-0.1 1.2,0.5 1.8,0.7 -0.4,0.6 -0.6,1.5 -1.1,1.6 -5.8,1.7 -11.7,3.2 -17.6,4.7 -0.4,0.1 -0.9,-0.1 -1.3,-0.1 z"
             id="path11829"
             inkscape:connector-curvature="0"
             style="fill:#343434;fill-opacity:1;stroke:none;stroke-opacity:1" />
          <path
             d="m 447.7,331.3 c 0.3,0.8 0.5,1.5 0.7,2.1 1.4,5.1 2.8,10.1 4,15.2 0.2,0.8 -0.3,1.9 -0.5,2.8 -0.7,-0.7 -1.7,-1.3 -1.9,-2.1 -1.5,-5.3 -2.9,-10.6 -4.3,-15.9 -0.2,-0.7 0.2,-1.5 0.5,-2.2 0.1,-0.2 1,0 1.5,0.1 z"
             id="path11831"
             inkscape:connector-curvature="0"
             style="fill:#343434;fill-opacity:1;stroke:none;stroke-opacity:1" />
          <path
             d="m 460.7,384.7 c -0.6,-0.7 -1.5,-1.3 -1.8,-2.1 -1.4,-4.6 -2.6,-9.3 -3.8,-14 -0.2,-0.9 -0.6,-1.8 -0.7,-2.7 0,-0.6 0.5,-1.2 0.8,-1.9 0.6,0.4 1.4,0.6 1.7,1.1 0.6,1.3 0.8,2.7 1.2,4.1 1.1,4.2 2.3,8.4 3.3,12.6 0.2,0.7 0.1,1.5 0.2,2.3 -0.3,0.2 -0.6,0.4 -0.9,0.6 z"
             id="path11833"
             inkscape:connector-curvature="0"
             style="fill:#343434;fill-opacity:1;stroke:none;stroke-opacity:1" />
          <path
             d="m 445,368.3 c -1.1,1.1 -2.2,2.4 -3.4,3.3 -0.6,0.4 -1.6,0.3 -2.4,0.5 0.1,-0.7 -0.1,-1.7 0.4,-2.2 2.3,-2.5 4.8,-4.9 7.3,-7.3 0.4,-0.4 1.5,-0.2 2.2,-0.3 -0.1,0.8 0,1.7 -0.4,2.2 -1.2,1.4 -2.5,2.6 -3.7,3.8 l 0,0 z"
             id="path11835"
             inkscape:connector-curvature="0"
             style="fill:#343434;fill-opacity:1;stroke:none;stroke-opacity:1" />
          <path
             d="m 456.8,351.2 c -0.7,0.1 -1.3,0.3 -1.6,0.1 -0.4,-0.3 -0.9,-0.9 -0.8,-1.3 0.8,-3.5 1.8,-6.9 2.8,-10.3 0.1,-0.3 0.9,-0.7 1.4,-0.6 0.3,0 0.9,0.7 0.9,1 -0.9,3.7 -1.8,7.4 -2.7,11.1 z"
             id="path11837"
             inkscape:connector-curvature="0"
             style="fill:#343434;fill-opacity:1;stroke:none;stroke-opacity:1" />
          <path
             d="m 453.2,364.4 c -0.2,0.6 -0.3,1.3 -0.5,1.9 -0.8,2.9 -1.5,5.8 -2.4,8.6 -0.2,0.6 -1.2,1 -1.8,1.5 -0.2,-0.7 -0.8,-1.5 -0.7,-2.1 0.7,-3 1.4,-6 2.4,-8.9 0.2,-0.7 1.2,-1.1 1.9,-1.6 0.4,0.2 0.8,0.4 1.1,0.6 z"
             id="path11839"
             inkscape:connector-curvature="0"
             style="fill:#343434;fill-opacity:1;stroke:none;stroke-opacity:1" />
          <path
             d="m 446.9,356.9 c -0.7,0 -1.4,0 -2.1,-0.2 -2.8,-0.7 -5.5,-1.4 -8.2,-2.2 -0.7,-0.2 -1.2,-1.1 -1.7,-1.7 0.7,-0.3 1.6,-1 2.2,-0.8 2.9,0.6 5.8,1.4 8.7,2.3 0.7,0.2 1.2,1.2 1.7,1.8 -0.2,0.3 -0.4,0.5 -0.6,0.8 z"
             id="path11841"
             inkscape:connector-curvature="0"
             style="fill:#343434;fill-opacity:1;stroke:none;stroke-opacity:1" />
          <path
             d="m 460.3,361 c -0.2,-0.7 -0.5,-1.3 -0.4,-1.5 0.4,-0.4 1.1,-1 1.5,-0.9 3.3,0.8 6.6,1.7 9.9,2.6 0.4,0.1 0.7,1 0.8,1.6 0,0.2 -0.7,0.9 -1,0.8 -3.5,-0.8 -7.1,-1.7 -10.8,-2.6 z"
             id="path11843"
             inkscape:connector-curvature="0"
             style="fill:#343434;fill-opacity:1;stroke:none;stroke-opacity:1" />
        </g>
      </g>
      <g
         style="fill:#ffffff;fill-opacity:1;stroke:none;stroke-opacity:0.39215686"
         transform="matrix(0.68641017,0,0,0.68641017,-510.45558,540.43962)"
         id="g11845">
        <path
           style="fill:#ffffff;fill-opacity:1;stroke:none;stroke-miterlimit:10;stroke-opacity:0.39215686"
           inkscape:connector-curvature="0"
           id="path11847"
           d="m 242.5,532 c -2.2,2.3 -4.9,3.4 -8.2,3.3 -3.3,-0.1 -6.2,-1.3 -8.8,-3.7 l -9.1,-8.6 32.8,-34.7 9.1,8.6 c 2.5,2.4 3.9,5.3 4.2,8.6 0.2,3.3 -0.7,6.1 -2.9,8.4 L 242.5,532 Z m -15.4,-8.6 3.5,3.3 c 0.9,0.9 2,1.3 3.2,1.3 1.2,0 2.2,-0.4 3,-1.2 L 254,508.6 c 0.8,-0.8 1.1,-1.8 1,-3.1 -0.1,-1.2 -0.6,-2.2 -1.5,-3.1 l -3.5,-3.3 -22.9,24.3 z"
           stroke-miterlimit="10" />
        <path
           style="fill:#ffffff;fill-opacity:1;stroke:none;stroke-miterlimit:10;stroke-opacity:0.39215686"
           inkscape:connector-curvature="0"
           id="path11849"
           d="m 250.9,552.9 25.7,-40.3 19.2,12.2 -3.9,6.1 -12.5,-7.9 -7,11 9.1,5.8 -3.9,6.1 -9.1,-5.8 -7,11 12.5,7.9 -3.9,6.1 -19.2,-12.2 z"
           stroke-miterlimit="10" />
        <path
           style="fill:#ffffff;fill-opacity:1;stroke:none;stroke-miterlimit:10;stroke-opacity:0.39215686"
           inkscape:connector-curvature="0"
           id="path11851"
           d="m 315.9,572.7 c -1.2,3.1 -3.1,5.4 -5.8,6.9 -1.8,1 -3.9,1.4 -6.4,1.1 -1.3,-0.1 -2.8,-0.5 -4.3,-1.2 -2.9,-1.2 -5.1,-2.8 -6.5,-4.8 -1.2,-1.7 -1.9,-3.7 -2.1,-5.9 -0.2,-2.2 0.1,-4.5 0.9,-6.9 l 7.3,2.4 c -0.7,2.7 -0.7,4.9 0,6.5 0.5,1.2 1.4,2.1 2.6,2.5 1.6,0.6 3.2,0.4 4.8,-0.6 0.8,-0.5 1.4,-1.4 1.9,-2.6 0.7,-1.8 0.5,-4 -0.6,-6.6 -1,-1.8 -2.4,-4.6 -4.4,-8.3 -1.6,-3.1 -2.6,-5.8 -2.9,-7.9 -0.3,-2.4 -0.1,-4.7 0.8,-6.9 1.6,-4 4.3,-6.5 8.2,-7.4 2.4,-0.5 4.9,-0.2 7.7,0.9 2.6,1.1 4.7,2.5 6.2,4.3 1.1,1.4 1.9,3 2.2,4.9 0.3,1.8 0.2,3.8 -0.4,5.8 l -7.6,-1.7 c 0.5,-1.9 0.5,-3.5 0,-4.9 -0.4,-1 -1.2,-1.8 -2.5,-2.3 -1.4,-0.5 -2.6,-0.4 -3.8,0.4 -0.9,0.6 -1.6,1.6 -2.2,2.9 -0.8,2 -0.7,4.5 0.4,7.4 0.4,1.1 1.1,2.5 2.2,4.2 1.2,2 2,3.4 2.3,4.1 1.2,2.4 1.9,4.6 2.3,6.6 0.2,0.9 0.3,1.8 0.3,2.5 0.1,1.8 -0.1,3.3 -0.6,4.6 z"
           stroke-miterlimit="10" />
        <path
           style="fill:#ffffff;fill-opacity:1;stroke:none;stroke-miterlimit:10;stroke-opacity:0.39215686"
           inkscape:connector-curvature="0"
           id="path11853"
           d="m 337.9,590.5 -7.8,-1.8 10.5,-46.6 7.8,1.8 -10.5,46.6 z"
           stroke-miterlimit="10" />
        <path
           style="fill:#ffffff;fill-opacity:1;stroke:none;stroke-miterlimit:10;stroke-opacity:0.39215686"
           inkscape:connector-curvature="0"
           id="path11855"
           d="m 370,595.4 c -3.5,-0.2 -6.4,-1.5 -8.8,-3.9 -2.3,-2.4 -3.4,-5.2 -3.2,-8.3 l 1.7,-26 c 0.2,-3.2 1.6,-5.8 4.3,-7.8 2.6,-2.1 5.7,-3 9.2,-2.7 3.5,0.2 6.4,1.5 8.7,3.9 2.3,2.4 3.4,5.2 3.1,8.3 l -0.4,5.4 -8.3,-0.5 0.4,-5.6 c 0.1,-1.1 -0.3,-2.1 -1.2,-3 -0.8,-0.9 -1.9,-1.3 -3.2,-1.4 -1.3,-0.1 -2.4,0.3 -3.3,1 -0.9,0.8 -1.4,1.7 -1.5,2.8 l -1.7,26.1 c -0.1,1.1 0.3,2.1 1.1,3 0.8,0.9 1.9,1.3 3.2,1.4 1.3,0.1 2.4,-0.2 3.3,-1 0.9,-0.8 1.5,-1.7 1.5,-2.8 l 0.6,-9.4 -4.4,-0.3 0.5,-7.2 12.7,0.8 -1.1,16.7 c -0.2,3.2 -1.6,5.8 -4.2,7.8 -2.5,2 -5.6,3 -9,2.7 z"
           stroke-miterlimit="10" />
        <path
           style="fill:#ffffff;fill-opacity:1;stroke:none;stroke-miterlimit:10;stroke-opacity:0.39215686"
           inkscape:connector-curvature="0"
           id="path11857"
           d="m 405.9,546.5 14.8,30.4 -4.3,-31.8 7.9,-1.1 6.4,47.4 -8.5,1.2 -15,-28.9 4.1,30.3 -7.9,1.1 -6.4,-47.4 8.9,-1.2 z"
           stroke-miterlimit="10" />
        <path
           style="fill:#ffffff;fill-opacity:1;stroke:none;stroke-miterlimit:10;stroke-opacity:0.39215686"
           inkscape:connector-curvature="0"
           id="path11859"
           d="m 453.8,556.6 21.9,-9.2 2.8,6.7 -21.9,9.2 -2.8,-6.7 z"
           stroke-miterlimit="10" />
        <path
           style="fill:#ffffff;fill-opacity:1;stroke:none;stroke-miterlimit:10;stroke-opacity:0.39215686"
           inkscape:connector-curvature="0"
           id="path11861"
           d="m 516.5,555.5 -29.1,-37.9 9.5,-7.3 c 2.5,-1.9 5.2,-3.1 8.2,-3.4 2.5,-0.3 4.9,0.3 7.3,1.9 1.3,0.8 2.5,2 3.7,3.6 1.9,2.5 2.8,5.2 2.4,7.8 -0.1,1.1 -0.5,2.2 -1.1,3.2 1.8,-0.6 3.7,-0.6 5.8,0.1 1.4,0.5 2.8,1.3 4.3,2.6 0.8,0.7 1.5,1.5 2.3,2.5 1.8,2.4 2.9,4.8 3.2,7.3 0.2,1.9 -0.1,3.8 -0.9,5.7 -0.9,2.1 -2.2,3.8 -3.8,5 l -11.8,8.9 z m -10.4,-27.7 2.7,-2 c 2,-1.5 2.6,-3.4 2,-5.6 -0.2,-0.8 -0.7,-1.7 -1.5,-2.7 -1.2,-1.6 -2.5,-2.4 -4,-2.6 -1.4,-0.1 -2.7,0.3 -3.9,1.2 l -2.7,2 7.4,9.7 z m 12.9,16.8 2.7,-2 c 2.2,-1.7 2.9,-3.8 2.2,-6.4 -0.2,-0.9 -0.7,-1.8 -1.4,-2.7 -1.6,-2.1 -3.3,-3.3 -4.9,-3.6 -1.5,-0.3 -3,0.2 -4.6,1.4 l -2.7,2 8.7,11.3 z"
           stroke-miterlimit="10" />
        <path
           style="fill:#ffffff;fill-opacity:1;stroke:none;stroke-miterlimit:10;stroke-opacity:0.39215686"
           inkscape:connector-curvature="0"
           id="path11863"
           d="m 561.6,515.7 c -2.3,2.7 -5.1,4.2 -8.4,4.6 -3.3,0.4 -6.1,-0.4 -8.5,-2.5 l -27.9,-24.3 5.1,-5.9 27.8,24.2 c 0.9,0.8 1.9,1 3.1,0.9 1.2,-0.2 2.2,-0.7 3,-1.7 0.8,-1 1.2,-2 1.2,-3.2 0,-1.2 -0.5,-2.2 -1.3,-2.9 l -27.7,-24.2 5.5,-6.3 27.9,24.3 c 2.4,2.1 3.6,4.8 3.6,8.1 0,3.3 -1.1,6.2 -3.4,8.9 z"
           stroke-miterlimit="10" />
        <path
           style="fill:#ffffff;fill-opacity:1;stroke:none;stroke-miterlimit:10;stroke-opacity:0.39215686"
           inkscape:connector-curvature="0"
           id="path11865"
           d="m 585,482.7 -4.3,6.8 -40.4,-25.4 4.3,-6.8 40.4,25.4 z"
           stroke-miterlimit="10" />
        <path
           style="fill:#ffffff;fill-opacity:1;stroke:none;stroke-miterlimit:10;stroke-opacity:0.39215686"
           inkscape:connector-curvature="0"
           id="path11867"
           d="m 603.4,445.7 -8.8,20 -43.8,-19.2 3.2,-7.3 37.2,16.3 5.5,-12.6 6.7,2.8 z"
           stroke-miterlimit="10" />
        <path
           style="fill:#ffffff;fill-opacity:1;stroke:none;stroke-miterlimit:10;stroke-opacity:0.39215686"
           inkscape:connector-curvature="0"
           id="path11869"
           d="m 604.1,400.8 c 3.1,0.7 5.4,2.5 7,5.4 1.6,2.9 2,6 1.2,9.4 l -2.9,12.3 -46.5,-10.9 2.9,-12.2 c 0.8,-3.4 2.6,-6 5.3,-7.9 2.7,-1.9 5.6,-2.4 8.7,-1.7 l 24.3,5.6 z m 0.2,17.7 1.1,-4.7 c 0.3,-1.2 0.1,-2.4 -0.5,-3.4 -0.6,-1 -1.5,-1.7 -2.5,-1.9 L 578,402.8 c -1.1,-0.3 -2.2,-0.1 -3.2,0.6 -1,0.7 -1.6,1.6 -1.9,2.8 l -1.1,4.7 32.5,7.6 z"
           stroke-miterlimit="10" />
        <path
           style="fill:#ffffff;fill-opacity:1;stroke:none;stroke-miterlimit:10;stroke-opacity:0.39215686"
           inkscape:connector-curvature="0"
           id="path11871"
           d="m 591.2,369.5 -0.5,-23.7 7.2,-0.2 0.5,23.7 -7.2,0.2 z"
           stroke-miterlimit="10" />
        <path
           style="fill:#ffffff;fill-opacity:1;stroke:none;stroke-miterlimit:10;stroke-opacity:0.39215686"
           inkscape:connector-curvature="0"
           id="path11873"
           d="m 563.7,311.7 c -1.1,-3.8 -0.8,-7 0.7,-9.9 1.4,-2.6 3.7,-4.4 6.9,-5.3 l 6.7,-1.9 c 3,-0.9 6,-0.4 8.8,1.3 2.8,1.7 4.7,4.3 5.6,7.6 l 1.3,4.4 17.3,-4.9 2.2,7.7 -46,13 -3.5,-12 z m 9.8,-7.7 c -1.2,0.3 -2.1,1 -2.6,2 -0.5,1 -0.6,2.2 -0.2,3.5 l 1.3,4.6 14.7,-4.2 -1.3,-4.6 c -0.3,-1.2 -1,-2.2 -2.1,-2.8 -1,-0.6 -2.1,-0.8 -3.2,-0.5 l -6.6,2 z"
           stroke-miterlimit="10" />
        <path
           style="fill:#ffffff;fill-opacity:1;stroke:none;stroke-miterlimit:10;stroke-opacity:0.39215686"
           inkscape:connector-curvature="0"
           id="path11875"
           d="m 589.2,248.7 9.7,19.5 -42.7,21.3 -3.6,-7.2 36.3,-18.1 -6.2,-12.4 6.5,-3.1 z"
           stroke-miterlimit="10" />
        <path
           style="fill:#ffffff;fill-opacity:1;stroke:none;stroke-miterlimit:10;stroke-opacity:0.39215686"
           inkscape:connector-curvature="0"
           id="path11877"
           d="m 564.4,230.9 9.9,-5.1 5.1,6.6 -43.4,21.8 -6.7,-8.7 32.5,-36.1 5.1,6.7 -7.6,8.2 5.1,6.6 z m -23,12.3 16.8,-9.1 -3.6,-4.7 -13.2,13.8 z"
           stroke-miterlimit="10" />
        <path
           style="fill:#ffffff;fill-opacity:1;stroke:none;stroke-miterlimit:10;stroke-opacity:0.39215686"
           inkscape:connector-curvature="0"
           id="path11879"
           d="m 532.9,208.6 -11,27.7 -6.5,-6 7.3,-16.6 -16,8.6 -6.5,-6 26.8,-13.1 13.6,-14.7 5.9,5.4 -13.6,14.7 z"
           stroke-miterlimit="10" />
      </g>
    </g>
  </g>
</svg>
